<?xml version="1.0" encoding="iso-8859-1"?>
<!-- Generator: Adobe Illustrator 19.0.0, SVG Export Plug-In . SVG Version: 6.00 Build 0)  -->
<svg version="1.1" id="Capa_1" xmlns="http://www.w3.org/2000/svg" xmlns:xlink="http://www.w3.org/1999/xlink" x="0px" y="0px"
	 viewBox="0 0 480.212 480.212" style="enable-background:new 0 0 480.212 480.212;" xml:space="preserve">
<linearGradient id="SVGID_1_" gradientUnits="userSpaceOnUse" x1="-26.7474" y1="558.7465" x2="-26.7474" y2="619.6255" gradientTransform="matrix(8 0 0 -8 454.1067 4941.6523)">
	<stop  offset="0" style="stop-color:#006DF0"/>
	<stop  offset="1" style="stop-color:#00E7F0"/>
</linearGradient>
<path style="fill:url(#SVGID_1_);" d="M232.128,216.072h16v16h-16V216.072z"/>
<g>
	
		<linearGradient id="SVGID_2_" gradientUnits="userSpaceOnUse" x1="-22.7474" y1="558.7465" x2="-22.7474" y2="619.6255" gradientTransform="matrix(8 0 0 -8 454.1067 4941.6523)">
		<stop  offset="0" style="stop-color:#006DF0"/>
		<stop  offset="1" style="stop-color:#00E7F0"/>
	</linearGradient>
	<path style="fill:url(#SVGID_2_);" d="M264.128,216.072h16v16h-16V216.072z"/>
	
		<linearGradient id="SVGID_3_" gradientUnits="userSpaceOnUse" x1="-18.7474" y1="558.7465" x2="-18.7474" y2="619.6255" gradientTransform="matrix(8 0 0 -8 454.1067 4941.6523)">
		<stop  offset="0" style="stop-color:#006DF0"/>
		<stop  offset="1" style="stop-color:#00E7F0"/>
	</linearGradient>
	<path style="fill:url(#SVGID_3_);" d="M296.128,216.072h16v16h-16V216.072z"/>
	
		<linearGradient id="SVGID_4_" gradientUnits="userSpaceOnUse" x1="-14.7474" y1="558.7465" x2="-14.7474" y2="619.6255" gradientTransform="matrix(8 0 0 -8 454.1067 4941.6523)">
		<stop  offset="0" style="stop-color:#006DF0"/>
		<stop  offset="1" style="stop-color:#00E7F0"/>
	</linearGradient>
	<path style="fill:url(#SVGID_4_);" d="M328.128,216.072h16v16h-16V216.072z"/>
	
		<linearGradient id="SVGID_5_" gradientUnits="userSpaceOnUse" x1="-10.7474" y1="558.7465" x2="-10.7474" y2="619.6255" gradientTransform="matrix(8 0 0 -8 454.1067 4941.6523)">
		<stop  offset="0" style="stop-color:#006DF0"/>
		<stop  offset="1" style="stop-color:#00E7F0"/>
	</linearGradient>
	<path style="fill:url(#SVGID_5_);" d="M360.128,216.072h16v16h-16V216.072z"/>
	
		<linearGradient id="SVGID_6_" gradientUnits="userSpaceOnUse" x1="-6.7474" y1="558.7465" x2="-6.7474" y2="619.6255" gradientTransform="matrix(8 0 0 -8 454.1067 4941.6523)">
		<stop  offset="0" style="stop-color:#006DF0"/>
		<stop  offset="1" style="stop-color:#00E7F0"/>
	</linearGradient>
	<path style="fill:url(#SVGID_6_);" d="M392.128,216.072h16v16h-16V216.072z"/>
	
		<linearGradient id="SVGID_7_" gradientUnits="userSpaceOnUse" x1="-30.7474" y1="558.7465" x2="-30.7474" y2="619.6255" gradientTransform="matrix(8 0 0 -8 454.1067 4941.6523)">
		<stop  offset="0" style="stop-color:#006DF0"/>
		<stop  offset="1" style="stop-color:#00E7F0"/>
	</linearGradient>
	<path style="fill:url(#SVGID_7_);" d="M200.128,216.072h16v16h-16V216.072z"/>
	
		<linearGradient id="SVGID_8_" gradientUnits="userSpaceOnUse" x1="-34.7474" y1="558.7465" x2="-34.7474" y2="619.6255" gradientTransform="matrix(8 0 0 -8 454.1067 4941.6523)">
		<stop  offset="0" style="stop-color:#006DF0"/>
		<stop  offset="1" style="stop-color:#00E7F0"/>
	</linearGradient>
	<path style="fill:url(#SVGID_8_);" d="M168.128,216.072h16v16h-16V216.072z"/>
	
		<linearGradient id="SVGID_9_" gradientUnits="userSpaceOnUse" x1="-38.7474" y1="558.7465" x2="-38.7474" y2="619.6255" gradientTransform="matrix(8 0 0 -8 454.1067 4941.6523)">
		<stop  offset="0" style="stop-color:#006DF0"/>
		<stop  offset="1" style="stop-color:#00E7F0"/>
	</linearGradient>
	<path style="fill:url(#SVGID_9_);" d="M136.128,216.072h16v16h-16V216.072z"/>
	
		<linearGradient id="SVGID_10_" gradientUnits="userSpaceOnUse" x1="-42.7474" y1="558.7465" x2="-42.7474" y2="619.6255" gradientTransform="matrix(8 0 0 -8 454.1067 4941.6523)">
		<stop  offset="0" style="stop-color:#006DF0"/>
		<stop  offset="1" style="stop-color:#00E7F0"/>
	</linearGradient>
	<path style="fill:url(#SVGID_10_);" d="M104.128,216.072h16v16h-16V216.072z"/>
	
		<linearGradient id="SVGID_11_" gradientUnits="userSpaceOnUse" x1="-46.7474" y1="558.7465" x2="-46.7474" y2="619.6255" gradientTransform="matrix(8 0 0 -8 454.1067 4941.6523)">
		<stop  offset="0" style="stop-color:#006DF0"/>
		<stop  offset="1" style="stop-color:#00E7F0"/>
	</linearGradient>
	<path style="fill:url(#SVGID_11_);" d="M72.128,216.072h16v16h-16V216.072z"/>
</g>
<g>
	
		<linearGradient id="SVGID_12_" gradientUnits="userSpaceOnUse" x1="-26.7474" y1="558.7465" x2="-26.7474" y2="619.6255" gradientTransform="matrix(8 0 0 -8 454.1067 4941.6523)">
		<stop  offset="0" style="stop-color:#006DF0"/>
		<stop  offset="1" style="stop-color:#00E7F0"/>
	</linearGradient>
	<path style="fill:url(#SVGID_12_);" d="M232.128,440.073h16v16h-16V440.073z"/>
	
		<linearGradient id="SVGID_13_" gradientUnits="userSpaceOnUse" x1="-26.7501" y1="558.7465" x2="-26.7501" y2="619.6255" gradientTransform="matrix(8 0 0 -8 454.1067 4941.6523)">
		<stop  offset="0" style="stop-color:#006DF0"/>
		<stop  offset="1" style="stop-color:#00E7F0"/>
	</linearGradient>
	<path style="fill:url(#SVGID_13_);" d="M448.128,368.073c-14.547,0.055-27.227,9.915-30.864,24h-49.136c-13.255,0-24-10.745-24-24
		v-112h64c39.764,0.047,72.038-32.151,72.084-71.916c0.036-30.993-19.765-58.531-49.156-68.364
		c-6.747-39.152-43.956-65.422-83.108-58.674c-6.152,1.06-12.14,2.917-17.812,5.522c-18.45-49.706-73.701-75.043-123.407-56.593
		c-26.204,9.726-46.867,30.39-56.593,56.593c-36.098-16.593-78.813-0.78-95.406,35.318c-2.61,5.679-4.47,11.674-5.53,17.834
		c-37.71,12.616-58.053,53.414-45.436,91.124c9.833,29.392,37.372,49.193,68.364,49.156h64v112c0,13.255-10.745,24-24,24H62.992
		c-4.418-17.112-21.872-27.402-38.984-22.984s-27.402,21.872-22.984,38.984s21.872,27.402,38.984,22.984
		c11.272-2.91,20.074-11.712,22.984-22.984h49.136c22.08-0.026,39.974-17.92,40-40v-112h80v160c0.048,0.362,0.12,0.72,0.216,1.072
		c-17.142,4.299-27.554,21.681-23.255,38.823c4.299,17.142,21.681,27.554,38.823,23.255s27.554-21.681,23.255-38.823
		c-2.871-11.447-11.808-20.384-23.255-23.255c0.096-0.352,0.168-0.71,0.216-1.072v-160h80v112c0.026,22.08,17.92,39.974,40,40
		h49.136c4.449,17.072,21.896,27.305,38.967,22.855c17.072-4.449,27.305-21.896,22.855-38.967
		C475.415,377.874,462.685,368.051,448.128,368.073z M32.128,416.073c-8.837,0-16-7.163-16-16s7.163-16,16-16s16,7.163,16,16
		S40.964,416.073,32.128,416.073z M256.128,448.073c0,8.837-7.163,16-16,16c-8.837,0-16-7.163-16-16s7.163-16,16-16
		C248.964,432.073,256.128,439.236,256.128,448.073z M16.128,184.072c-0.015-25.659,17.41-48.045,42.288-54.328
		c3.281-0.831,5.684-3.638,6-7.008c2.604-28.789,26.805-50.798,55.712-50.664c10.773-0.026,21.317,3.105,30.328,9.008
		c3.692,2.426,8.653,1.4,11.079-2.293c0.492-0.749,0.855-1.575,1.073-2.443c10.916-42.813,54.472-68.671,97.285-57.755
		c28.37,7.233,50.522,29.386,57.755,57.755c1.077,4.285,5.423,6.886,9.709,5.809c0.869-0.218,1.695-0.581,2.443-1.073
		c9.012-5.903,19.555-9.034,30.328-9.008c28.907-0.134,53.108,21.875,55.712,50.664c0.316,3.37,2.719,6.177,6,7.008
		c30.005,7.501,48.248,37.905,40.747,67.909c-6.244,24.977-28.713,42.479-54.459,42.419h-336
		C41.214,240.037,16.163,214.986,16.128,184.072L16.128,184.072z M448.128,416.073c-8.837,0-16-7.163-16-16s7.163-16,16-16
		s16,7.163,16,16S456.964,416.073,448.128,416.073z"/>
</g>
<g>
	
		<linearGradient id="SVGID_14_" gradientUnits="userSpaceOnUse" x1="-0.7474" y1="558.7465" x2="-0.7474" y2="619.6255" gradientTransform="matrix(8 0 0 -8 454.1067 4941.6523)">
		<stop  offset="0" style="stop-color:#006DF0"/>
		<stop  offset="1" style="stop-color:#00E7F0"/>
	</linearGradient>
	<path style="fill:url(#SVGID_14_);" d="M440.128,392.073h16v16h-16V392.073z"/>
	
		<linearGradient id="SVGID_15_" gradientUnits="userSpaceOnUse" x1="-23.7474" y1="558.7465" x2="-23.7474" y2="619.6255" gradientTransform="matrix(8 0 0 -8 454.1067 4941.6523)">
		<stop  offset="0" style="stop-color:#006DF0"/>
		<stop  offset="1" style="stop-color:#00E7F0"/>
	</linearGradient>
	<path style="fill:url(#SVGID_15_);" d="M256.128,264.073h16v16h-16V264.073z"/>
	
		<linearGradient id="SVGID_16_" gradientUnits="userSpaceOnUse" x1="-23.7474" y1="558.7465" x2="-23.7474" y2="619.6255" gradientTransform="matrix(8 0 0 -8 454.1067 4941.6523)">
		<stop  offset="0" style="stop-color:#006DF0"/>
		<stop  offset="1" style="stop-color:#00E7F0"/>
	</linearGradient>
	<path style="fill:url(#SVGID_16_);" d="M256.128,296.073h16v16h-16V296.073z"/>
	
		<linearGradient id="SVGID_17_" gradientUnits="userSpaceOnUse" x1="-23.7474" y1="558.7465" x2="-23.7474" y2="619.6255" gradientTransform="matrix(8 0 0 -8 454.1067 4941.6523)">
		<stop  offset="0" style="stop-color:#006DF0"/>
		<stop  offset="1" style="stop-color:#00E7F0"/>
	</linearGradient>
	<path style="fill:url(#SVGID_17_);" d="M256.128,328.073h16v16h-16V328.073z"/>
	
		<linearGradient id="SVGID_18_" gradientUnits="userSpaceOnUse" x1="-23.7474" y1="558.7465" x2="-23.7474" y2="619.6255" gradientTransform="matrix(8 0 0 -8 454.1067 4941.6523)">
		<stop  offset="0" style="stop-color:#006DF0"/>
		<stop  offset="1" style="stop-color:#00E7F0"/>
	</linearGradient>
	<path style="fill:url(#SVGID_18_);" d="M256.128,360.073h16v16h-16V360.073z"/>
	
		<linearGradient id="SVGID_19_" gradientUnits="userSpaceOnUse" x1="-11.7474" y1="558.7465" x2="-11.7474" y2="619.6255" gradientTransform="matrix(8 0 0 -8 454.1067 4941.6523)">
		<stop  offset="0" style="stop-color:#006DF0"/>
		<stop  offset="1" style="stop-color:#00E7F0"/>
	</linearGradient>
	<path style="fill:url(#SVGID_19_);" d="M352.128,264.073h16v16h-16V264.073z"/>
	
		<linearGradient id="SVGID_20_" gradientUnits="userSpaceOnUse" x1="-11.7474" y1="558.7465" x2="-11.7474" y2="619.6255" gradientTransform="matrix(8 0 0 -8 454.1067 4941.6523)">
		<stop  offset="0" style="stop-color:#006DF0"/>
		<stop  offset="1" style="stop-color:#00E7F0"/>
	</linearGradient>
	<path style="fill:url(#SVGID_20_);" d="M352.128,296.073h16v16h-16V296.073z"/>
	
		<linearGradient id="SVGID_21_" gradientUnits="userSpaceOnUse" x1="-11.7474" y1="558.7465" x2="-11.7474" y2="619.6255" gradientTransform="matrix(8 0 0 -8 454.1067 4941.6523)">
		<stop  offset="0" style="stop-color:#006DF0"/>
		<stop  offset="1" style="stop-color:#00E7F0"/>
	</linearGradient>
	<path style="fill:url(#SVGID_21_);" d="M352.128,328.073h16v16h-16V328.073z"/>
	
		<linearGradient id="SVGID_22_" gradientUnits="userSpaceOnUse" x1="-11.7474" y1="558.7465" x2="-11.7474" y2="619.6255" gradientTransform="matrix(8 0 0 -8 454.1067 4941.6523)">
		<stop  offset="0" style="stop-color:#006DF0"/>
		<stop  offset="1" style="stop-color:#00E7F0"/>
	</linearGradient>
	<path style="fill:url(#SVGID_22_);" d="M352.128,360.073h16v16h-16V360.073z"/>
	
		<linearGradient id="SVGID_23_" gradientUnits="userSpaceOnUse" x1="-52.7474" y1="558.7465" x2="-52.7474" y2="619.6255" gradientTransform="matrix(8 0 0 -8 454.1067 4941.6523)">
		<stop  offset="0" style="stop-color:#006DF0"/>
		<stop  offset="1" style="stop-color:#00E7F0"/>
	</linearGradient>
	<path style="fill:url(#SVGID_23_);" d="M24.128,392.073h16v16h-16V392.073z"/>
	
		<linearGradient id="SVGID_24_" gradientUnits="userSpaceOnUse" x1="-41.7474" y1="558.7465" x2="-41.7474" y2="619.6255" gradientTransform="matrix(8 0 0 -8 454.1067 4941.6523)">
		<stop  offset="0" style="stop-color:#006DF0"/>
		<stop  offset="1" style="stop-color:#00E7F0"/>
	</linearGradient>
	<path style="fill:url(#SVGID_24_);" d="M112.128,264.073h16v16h-16V264.073z"/>
	
		<linearGradient id="SVGID_25_" gradientUnits="userSpaceOnUse" x1="-41.7474" y1="558.7465" x2="-41.7474" y2="619.6255" gradientTransform="matrix(8 0 0 -8 454.1067 4941.6523)">
		<stop  offset="0" style="stop-color:#006DF0"/>
		<stop  offset="1" style="stop-color:#00E7F0"/>
	</linearGradient>
	<path style="fill:url(#SVGID_25_);" d="M112.128,296.073h16v16h-16V296.073z"/>
	
		<linearGradient id="SVGID_26_" gradientUnits="userSpaceOnUse" x1="-41.7474" y1="558.7465" x2="-41.7474" y2="619.6255" gradientTransform="matrix(8 0 0 -8 454.1067 4941.6523)">
		<stop  offset="0" style="stop-color:#006DF0"/>
		<stop  offset="1" style="stop-color:#00E7F0"/>
	</linearGradient>
	<path style="fill:url(#SVGID_26_);" d="M112.128,328.073h16v16h-16V328.073z"/>
	
		<linearGradient id="SVGID_27_" gradientUnits="userSpaceOnUse" x1="-41.7474" y1="558.7465" x2="-41.7474" y2="619.6255" gradientTransform="matrix(8 0 0 -8 454.1067 4941.6523)">
		<stop  offset="0" style="stop-color:#006DF0"/>
		<stop  offset="1" style="stop-color:#00E7F0"/>
	</linearGradient>
	<path style="fill:url(#SVGID_27_);" d="M112.128,360.073h16v16h-16V360.073z"/>
	
		<linearGradient id="SVGID_28_" gradientUnits="userSpaceOnUse" x1="-23.7474" y1="558.7465" x2="-23.7474" y2="619.6255" gradientTransform="matrix(8 0 0 -8 454.1067 4941.6523)">
		<stop  offset="0" style="stop-color:#006DF0"/>
		<stop  offset="1" style="stop-color:#00E7F0"/>
	</linearGradient>
	<path style="fill:url(#SVGID_28_);" d="M256.128,392.073h16v16h-16V392.073z"/>
</g>
<g>
</g>
<g>
</g>
<g>
</g>
<g>
</g>
<g>
</g>
<g>
</g>
<g>
</g>
<g>
</g>
<g>
</g>
<g>
</g>
<g>
</g>
<g>
</g>
<g>
</g>
<g>
</g>
<g>
</g>
</svg>
